HIERARCHY
ROOT Hips
{
  OFFSET -331.093 83.8371 -317.828
  CHANNELS 6 Xposition Yposition Zposition Zrotation Xrotation Yrotation
  JOINT LeftUpLeg
  {
    OFFSET 8.64259 1.95398 -2.38835
    CHANNELS 3 Zrotation Xrotation Yrotation
    JOINT LeftLeg
    {
      OFFSET 43.7702 0 0
      CHANNELS 3 Zrotation Xrotation Yrotation
      JOINT LeftFoot
      {
        OFFSET 40.6238 0 0
        CHANNELS 3 Zrotation Xrotation Yrotation
        JOINT LeftToeBase
        {
          OFFSET 12.7242 0 0
          CHANNELS 3 Zrotation Xrotation Yrotation
          End Site
          {
            OFFSET 0 0 0
          }
        }
      }
    }
  }
  JOINT RightUpLeg
  {
    OFFSET -8.2249 1.95398 -2.59336
    CHANNELS 3 Zrotation Xrotation Yrotation
    JOINT RightLeg
    {
      OFFSET 43.5653 0 0
      CHANNELS 3 Zrotation Xrotation Yrotation
      JOINT RightFoot
      {
        OFFSET 40.6238 0 0
        CHANNELS 3 Zrotation Xrotation Yrotation
        JOINT RightToeBase
        {
          OFFSET 12.7242 0 0
          CHANNELS 3 Zrotation Xrotation Yrotation
          End Site
          {
            OFFSET 0 0 0
          }
        }
      }
    }
  }
  JOINT Spine
  {
    OFFSET 0.165834 0.87714 6.61349
    CHANNELS 3 Zrotation Xrotation Yrotation
    JOINT Spine1
    {
      OFFSET 7.38963 1.71661e-005 0
      CHANNELS 3 Zrotation Xrotation Yrotation
      JOINT Spine2
      {
        OFFSET 11.9445 1.14441e-005 0
        CHANNELS 3 Zrotation Xrotation Yrotation
        JOINT Spine3
        {
          OFFSET 14.7254 4.19617e-005 0
          CHANNELS 3 Zrotation Xrotation Yrotation
          JOINT Spine4
          {
            OFFSET 10.9679 0 0
            CHANNELS 3 Zrotation Xrotation Yrotation
            JOINT RightShoulder
            {
              OFFSET 2.46616 -1.6653 3.69651
              CHANNELS 3 Zrotation Xrotation Yrotation
              JOINT RightArm
              {
                OFFSET 13.0012 0 0
                CHANNELS 3 Zrotation Xrotation Yrotation
                JOINT RightForeArm
                {
                  OFFSET 28.7848 1.62311e-005 0
                  CHANNELS 3 Zrotation Xrotation Yrotation
                  JOINT RightHand
                  {
                    OFFSET 26.5688 1.62095e-005 0
                    CHANNELS 3 Zrotation Xrotation Yrotation
                    End Site
                    {
                      OFFSET 0 0 0
                    }
                  }
                }
              }
            }
            JOINT LeftShoulder
            {
              OFFSET 2.38034 -1.29275 -3.7523
              CHANNELS 3 Zrotation Xrotation Yrotation
              JOINT LeftArm
              {
                OFFSET 16.3182 6.07031e-005 0
                CHANNELS 3 Zrotation Xrotation Yrotation
                JOINT LeftForeArm
                {
                  OFFSET 27.0901 0 0
                  CHANNELS 3 Zrotation Xrotation Yrotation
                  JOINT LeftHand
                  {
                    OFFSET 24.5451 1.51738e-005 0
                    CHANNELS 3 Zrotation Xrotation Yrotation
                    End Site
                    {
                      OFFSET 0 0 0
                    }
                  }
                }
              }
            }
            JOINT Neck
            {
              OFFSET 5.0226 -0.0266342 0
              CHANNELS 3 Zrotation Xrotation Yrotation
              JOINT Head
              {
                OFFSET 6.69364 2.86102e-005 0
                CHANNELS 3 Zrotation Xrotation Yrotation
                End Site
                {
                  OFFSET 0 0 0
                }
              }
            }
          }
        }
      }
    }
  }
}
MOTION
Frames:	10
Frame Time:	0.0416667
-68.0576 98.3314 55.3393 90.0113 -86.3797 87.1218 -173.727 4.71235 97.1577 -7.96105 11.9592 0.89692 57.5942 -1.1551 -1.42362 32.5316 3.97336 4.25992 169.677 5.79363 89.4687 -17.9351 -6.94861 0.132362 70.3793 -3.65469 -1.91584 27.2081 -0.213788 -2.31382 -0.271765 6.90562 -91.1043 13.0483 -1.07021 -2.07764 1.37621 -1.1606 -2.02856 -21.1464 -0.396501 -2.30311 -1.13372 -0.396505 -2.3031 90.8819 -41.0855 -101.212 25.0645 -16.7845 -0.348039 -3.38883 -11.1165 -36.2142 -8.11747 -0.61779 3.45837 -98.9173 -49.136 65.8014 -22.7965 21.8056 -5.82587 4.67811 16.244 -34.9287 13.9368 1.18376 4.50543 4.52183 -0.744679 -4.88659 -6.15236 0.227711 -2.40384 
-68.109 98.3307 55.3396 97.5781 -87.2955 94.3758 -173.712 4.14814 96.8985 -8.10201 10.9804 0.930596 57.6641 -1.07335 -1.78568 32.9904 4.39606 4.43692 169.597 5.83946 89.112 -18.5403 -7.88605 -0.00354229 70.7377 -3.80274 -1.9846 26.8477 -0.183995 -2.15327 -0.296682 6.9517 -91.0905 12.9561 -1.11231 -2.04581 1.28409 -1.20125 -1.99491 -21.2391 -0.446218 -2.2854 -1.22641 -0.446215 -2.2854 90.7564 -40.2625 -101.65 25.7354 -16.7309 -0.476634 -3.65838 -11.6044 -36.3062 -7.73365 -0.60097 3.62449 -98.7969 -49.524 66.1145 -23.2436 21.6411 -5.81286 4.72954 16.0474 -35.1827 13.9855 1.06206 3.63522 4.04849 -0.730431 -3.634 -5.48127 0.0524953 -4.49404 
-67.7606 98.3201 55.1595 97.6973 -87.5875 94.86 -173.614 4.3796 97.0755 -8.24602 10.7525 0.919479 57.1488 -1.1555 -1.67818 34.0291 4.90816 3.32654 169.674 5.81357 89.257 -18.2067 -8.0707 0.013761 70.4424 -3.72287 -1.94946 27.1743 -0.186167 -2.06811 -0.305837 6.9413 -91.0887 12.9768 -1.12974 -2.03978 1.30484 -1.2184 -1.98811 -21.2184 -0.464658 -2.28488 -1.20579 -0.464663 -2.28488 90.9411 -40.6303 -101.233 25.3483 -16.9289 -0.719274 -3.61668 -11.8731 -36.19 -7.87279 -0.604353 3.49017 -98.662 -49.3078 66.2343 -23.7519 21.66 -5.74862 4.90904 16.0859 -35.3832 13.4152 1.08164 4.10382 3.76329 -1.14601 -4.35359 -5.1909 -0.248396 -4.66088 
-67.034 98.3768 54.8137 94.4666 -87.8537 92.0553 -173.569 4.74017 97.0812 -8.29786 10.9408 0.821635 56.5287 -1.20591 -1.04421 34.4899 4.96906 2.32939 169.947 5.838 89.3847 -17.4391 -8.00634 -0.19515 69.5914 -3.39868 -1.81022 27.5604 -0.183884 -1.91109 -0.313753 6.92012 -91.1149 13.0185 -1.15841 -2.08828 1.34645 -1.24918 -2.03531 -21.1763 -0.477439 -2.33975 -1.16362 -0.477431 -2.33975 90.7827 -40.5961 -101.513 25.1053 -16.8641 -0.394038 -3.12563 -11.1056 -36.1986 -8.05128 -0.618068 3.55294 -98.6103 -49.3178 66.3131 -24.0059 20.9572 -5.69156 5.52869 17.1565 -35.5229 11.5469 0.935262 4.00493 3.52377 -1.29452 -4.22475 -5.02827 -0.415396 -5.32992 
-65.8918 98.4679 54.3687 89.169 -87.9941 86.9401 -173.717 5.06653 96.5793 -8.24407 10.2244 0.667167 56.6041 -1.02294 -0.705614 34.4534 4.6051 1.22114 169.853 6.15237 88.934 -16.8771 -8.36752 -0.281575 68.6736 -3.05751 -1.65248 28.2501 -0.241078 -2.20715 -0.330614 6.92406 -91.0944 13.0108 -1.18199 -2.04462 1.33889 -1.27083 -1.99064 -21.1845 -0.513046 -2.3052 -1.17186 -0.513048 -2.3052 90.8908 -40.6215 -101.321 24.7786 -16.8145 -0.801897 -3.34218 -11.5825 -35.825 -7.94195 -0.616403 3.63336 -98.6396 -49.3886 66.2953 -23.7206 21.6777 -5.83348 4.78051 16.2034 -35.1615 13.587 1.02515 3.57636 4.01637 -1.26213 -4.29083 -5.57432 -0.334589 -5.11746 
-64.3697 98.5919 53.9555 106.422 -88.314 104.117 -173.747 4.43234 95.7508 -8.03344 9.85794 0.331795 56.6413 -1.10255 -0.504512 34.2839 4.58699 1.59283 169.659 5.60916 88.0207 -15.9442 -8.90745 -0.665447 68.1656 -2.95203 -1.61275 27.9979 -0.192632 -1.85793 -0.328732 6.99209 -91.0247 12.8763 -1.14373 -1.91116 1.20451 -1.22672 -1.859 -21.3205 -0.516632 -2.16641 -1.30786 -0.516631 -2.16642 90.8464 -40.5634 -101.413 24.859 -16.4906 -0.63769 -3.56961 -11.5439 -36.0629 -7.91527 -0.601417 3.39778 -98.5602 -49.3011 66.3802 -23.4561 20.9496 -5.99006 4.64055 16.1304 -34.9284 11.3087 1.07163 5.31744 3.46333 -1.20195 -3.99628 -5.02026 -0.366005 -5.30237 
-62.5185 98.6481 53.413 94.6459 -88.3964 92.8365 -173.767 4.7493 95.19 -7.78996 9.89596 -0.0783589 57.7587 -0.0958332 0.612162 33.1993 3.41555 0.436157 169.587 6.02837 87.5347 -15.0608 -9.11037 -0.791683 67.0769 -2.62824 -1.45527 28.6692 -0.279115 -2.38552 -0.332968 6.97193 -90.984 12.9174 -1.13296 -1.83066 1.24575 -1.21242 -1.77905 -21.2802 -0.530539 -2.08642 -1.2676 -0.530537 -2.08642 90.8418 -40.589 -101.414 25.0289 -16.3835 -0.7967 -3.45714 -11.5019 -35.6331 -8.11797 -0.635356 3.74398 -98.2442 -49.2407 66.82 -23.6282 20.9603 -6.11179 4.58848 16.9139 -34.1616 13.5281 1.07773 3.96579 3.61778 -0.893072 -3.65856 -5.24133 -0.10999 -5.11714 
-60.4556 98.6996 52.9672 90.3744 -88.4009 88.8759 -173.959 4.68464 94.3675 -7.40874 9.41976 -0.349572 58.3368 0.268917 1.03658 32.8105 2.84058 -0.593932 169.614 6.00642 86.8438 -13.8209 -9.16436 -1.20056 65.6139 -2.08922 -1.17973 30.0097 -0.432692 -3.18835 -0.313528 6.97152 -90.8546 12.921 -1.03232 -1.58411 1.2496 -1.10104 -1.53715 -21.2789 -0.508602 -1.82106 -1.26621 -0.508597 -1.82105 90.7847 -40.9341 -101.418 25.4959 -16.407 -0.768662 -3.39314 -11.2125 -35.6542 -8.08496 -0.623407 3.59127 -98.2942 -49.1456 66.7139 -23.2848 20.465 -5.75669 4.43779 16.9318 -33.8148 13.4788 1.07617 3.99575 3.73155 -0.74104 -3.46237 -5.68875 -0.0017676 -4.10935 
-58.2344 98.7744 52.5689 85.7847 -88.9096 84.5968 -174.144 5.05857 93.4498 -8.19043 8.91383 -0.658763 59.3692 0.664825 1.94679 32.0953 2.02584 -1.68895 169.566 5.66633 86.0869 -11.8233 -9.50523 -1.62582 63.8074 -1.54916 -0.873344 30.9229 -0.54993 -3.73645 -0.249219 6.9848 -90.6681 12.8983 -0.815066 -1.23749 1.22706 -0.868736 -1.20044 -21.304 -0.405514 -1.4252 -1.29139 -0.405511 -1.42521 90.8021 -41.1426 -101.332 26.5941 -16.4408 -0.906166 -3.84497 -11.0018 -35.9997 -7.82378 -0.612056 3.72943 -98.2415 -49.1767 66.8019 -22.7413 19.791 -5.35762 4.27134 17.1603 -33.27 13.6513 1.13292 4.30602 3.60783 -0.589714 -2.71045 -5.69905 0.000868255 -3.66576 
-56.0491 98.8446 52.2352 80.0138 -89.2005 79.1546 -174.042 6.12236 92.744 -10.2142 7.838 -1.19528 60.8846 0.575409 1.43344 30.8514 1.01736 -2.14158 169.672 5.06577 85.4756 -9.53704 -9.34483 -2.19981 62.0764 -1.16688 -0.623003 31.484 -0.679489 -4.44656 -0.199586 6.99886 -90.4482 12.8736 -0.61109 -0.822775 1.20254 -0.646704 -0.795089 -21.331 -0.335576 -0.968383 -1.31834 -0.335572 -0.968381 90.9753 -40.8834 -101.106 28.2508 -16.9651 -1.30852 -3.98676 -11.3212 -36.1966 -8.0263 -0.617548 3.54414 -98.3114 -49.4518 66.7952 -21.6893 19.0411 -5.04892 3.91766 17.7951 -32.1081 14.0088 1.13969 4.15907 3.07397 -0.287301 -1.7472 -5.06396 0.0808131 -2.75394 
